#N canvas 66 86 1658 942 10;
#X obj 117 155 vsl 20 128 -40 60 0 0 s1 r1 16' 0 -9 0 10 #fcfcfc #000000 #000000 0 1;
#X obj 160 155 vsl 20 128 -40 60 0 0 s2 r2 16_1/3' 0 -9 0 10 #fcfcfc #000000 #000000 0 1;
#X obj 204 156 vsl 20 128 -40 60 0 1 s3 r3 8' 0 -9 0 10 #fcfcfc #000000 #000000 7673 1;
#X obj 248 156 vsl 20 128 -40 60 0 1 s4 r4 4' 0 -9 0 10 #fcfcfc #000000 #000000 9299 1;
#X obj 291 155 vsl 20 128 -40 60 0 0 s5 r5 2_2/3' 0 -9 0 10 #fcfcfc #000000 #000000 0 1;
#X obj 334 156 vsl 20 128 -40 60 0 0 s6 r6 2' 0 -9 0 10 #fcfcfc #000000 #000000 0 1;
#X obj 376 156 vsl 20 128 -40 60 0 0 s7 r7 1_3/5' 0 -9 0 10 #fcfcfc #000000 #000000 0 1;
#X obj 420 157 vsl 20 128 -40 60 0 0 s8 r8 1_1/3' 0 -9 0 10 #fcfcfc #000000 #000000 0 1;
#X obj 465 157 vsl 20 128 -40 60 0 0 s9 r9 1' 0 -9 0 10 #fcfcfc #000000 #000000 0 1;
#X obj 545 280 /~ 7;
#X obj 545 117 inlet;
#X obj 590 117 inlet;
#X obj 544 320 outlet~;
#X text 543 95 Note;
#X text 588 95 Velocity;
#X text 726 192 Here we create the 7 voices poliphony. Each time we play more than one note simultaneously \, the new note and velocity are sent to a new complete rank of pipes.;
#X text 728 254 To avoid clipping we have to divide the signal by 7;
#X text 734 310 Author: Nicola Simoni (nicola.simoni.89@gmail.com);
#X text 729 294 Project: Pipe Organ Emulation with Pure Data;
#X obj 545 197 pack 0 0 0;
#X obj 545 237 clone -s 1 pipes 8;
#X obj 545 176 poly 8 1;
#X connect 9 0 12 0;
#X connect 10 0 21 0;
#X connect 11 0 21 1;
#X connect 19 0 20 0;
#X connect 20 0 9 0;
#X connect 21 0 19 0;
#X connect 21 1 19 1;
#X connect 21 2 19 2;
#X coords 0 -1 1 1 400 200 1 100 100;
