#N canvas 368 217 1327 825 10;
#X obj 67 363 reverb;
#X obj 67 293 tremolo;
#X obj 528 356 hradio 15 1 0 6 presets tasti presets 0 -8 0 10 #fcfcfc #000000 #000000 0;
#X obj 759 74 presets;
#X obj 527 183 tgl 15 1 s_principale16 r_principale16 principale_16' 0 -10 0 10 #fcfcfc #000000 #000000 0 1;
#X obj 630 182 tgl 15 1 s_corno r_corno corno_inglese 0 -10 0 10 #fcfcfc #000000 #000000 0 1;
#X obj 731 182 tgl 15 1 s_fagotto16 r_fagotto16 fagotto_16' 0 -10 0 10 #fcfcfc #000000 #000000 0 1;
#X obj 831 180 tgl 15 1 s_principale8 r_principale8 principale_8' 0 -10 0 10 #fcfcfc #000000 #000000 0 1;
#X obj 934 179 tgl 15 1 s_ottava4 r_ottava4 ottava_4' 0 -10 0 10 #fcfcfc #000000 #000000 0 1;
#X obj 1027 179 tgl 15 1 s_tromba8 r_tromba8 tromba_8' 0 -10 0 10 #fcfcfc #000000 #000000 0 1;
#X obj 1120 180 tgl 15 1 s_violabassi4 r_violabassi4 viola_bassi_4' 0 -10 0 10 #fcfcfc #000000 #000000 0 1;
#X obj 528 226 tgl 15 1 s_flauto4 r_flauto4 flauto_4' 0 -10 0 10 #fcfcfc #000000 #000000 0 1;
#X obj 630 227 tgl 15 1 s_ottavino r_ottavino ottavino 0 -10 0 10 #fcfcfc #000000 #000000 0 1;
#X obj 732 226 tgl 15 1 s_duodecima r_duodecima duodecima 0 -10 0 10 #fcfcfc #000000 #000000 0 1;
#X obj 832 225 tgl 15 1 s_cornetto r_cornetto cornetto 0 -10 0 10 #fcfcfc #000000 #000000 0 1;
#X obj 935 225 tgl 15 1 s_voce r_voce voce 0 -10 0 10 #fcfcfc #000000 #000000 0 1;
#X obj 1028 224 tgl 15 1 s_tromboni r_tromboni tromboni 0 -10 0 10 #fcfcfc #000000 #000000 0 1;
#X obj 652 74 registri;
#X obj 66 535 out;
#X obj 528 293 hradio 15 1 0 6 presetsreg tastireg presets_registers 0 -8 0 10 #fcfcfc #000000 #000000 0;
#X obj 66 83 consolle;
#X text 932 702 Project: Pipe Organ Emulation with Pure Data;
#X text 938 716 Author: Nicola Simoni (nicola.simoni.89@gmail.com);
#X obj 65 737 outlet~;
#X obj 143 736 outlet~;
#X obj 66 34 unpack 0 0;
#X obj 66 14 inlet;
#X connect 0 0 18 0;
#X connect 0 1 18 1;
#X connect 1 0 0 0;
#X connect 18 0 23 0;
#X connect 18 1 24 0;
#X connect 20 0 1 0;
#X connect 25 0 20 0;
#X connect 25 1 20 1;
#X connect 26 0 25 0;
